<?xml version="1.0" standalone="no"?>
<!DOCTYPE svg PUBLIC "-//W3C//DTD SVG 20010904//EN"
 "http://www.w3.org/TR/2001/REC-SVG-20010904/DTD/svg10.dtd">
<svg version="1.0" xmlns="http://www.w3.org/2000/svg"
 width="346.000000pt" height="346.000000pt" viewBox="0 0 346.000000 346.000000"
 preserveAspectRatio="xMidYMid meet">
<metadata>
Created by potrace 1.14, written by Peter Selinger 2001-2017
</metadata>
<g transform="translate(0.000000,346.000000) scale(0.100000,-0.100000)"
fill="#000000" stroke="none">
<path d="M1545 3290 c-152 -10 -318 -55 -459 -124 -61 -30 -150 -72 -197 -95
-94 -44 -253 -172 -307 -246 -16 -22 -51 -59 -79 -83 -34 -28 -63 -67 -89
-115 -20 -40 -56 -99 -79 -132 -53 -76 -132 -263 -150 -358 -8 -39 -23 -106
-32 -147 -27 -113 -23 -322 7 -415 21 -67 48 -164 104 -380 29 -112 85 -253
116 -292 11 -14 20 -30 20 -34 0 -8 33 -57 192 -287 33 -48 60 -76 95 -95 26
-15 84 -54 128 -87 96 -71 165 -106 345 -170 173 -62 153 -56 310 -81 81 -12
178 -20 242 -20 113 2 316 24 346 39 9 5 39 14 66 21 101 25 347 139 422 196
25 19 51 35 59 35 21 0 132 86 200 155 188 191 306 380 398 640 82 231 88 261
91 475 5 256 -7 330 -80 488 -13 29 -24 58 -24 64 0 30 -127 279 -184 361
-104 149 -128 178 -179 215 -30 22 -60 46 -68 54 -49 46 -134 111 -194 149
-38 24 -76 49 -82 55 -17 16 -222 114 -239 114 -5 0 -42 14 -82 31 -48 20
-123 39 -219 55 -149 24 -202 26 -398 14z"/>
</g>
</svg>
